<?xml version="1.0" standalone="no"?>
<!DOCTYPE svg PUBLIC "-//W3C//DTD SVG 20010904//EN"
 "http://www.w3.org/TR/2001/REC-SVG-20010904/DTD/svg10.dtd">
<svg version="1.0" xmlns="http://www.w3.org/2000/svg"
 width="2048.000000pt" height="816.000000pt" viewBox="0 0 2048.000000 816.000000"
 preserveAspectRatio="xMidYMid meet">

<g transform="translate(0.000000,816.000000) scale(0.100000,-0.100000)"
fill="#000000" stroke="none">
<path d="M2061 6553 c-67 -33 -95 -114 -63 -186 27 -60 59 -75 247 -117 83
-18 155 -38 161 -44 26 -25 34 -382 34 -1486 0 -663 4 -1170 10 -1250 22 -294
75 -485 185 -675 56 -98 208 -247 309 -304 290 -164 740 -204 1179 -106 146
33 445 134 573 195 250 118 303 261 193 525 -89 214 -214 326 -363 326 -81 0
-128 -12 -246 -67 -203 -93 -509 -131 -638 -79 -55 22 -85 60 -111 137 -38
118 -42 176 -39 643 l3 450 433 53 c468 56 477 58 500 119 6 16 34 150 62 298
28 149 71 372 96 497 24 124 44 242 44 262 0 46 -17 81 -49 103 -24 16 -65 18
-468 21 l-443 3 0 140 c0 157 -10 193 -63 231 -51 36 -100 33 -505 -32 -211
-34 -386 -60 -389 -57 -2 3 -8 52 -12 109 -8 111 -25 157 -66 184 -25 16 -471
124 -515 124 -14 0 -40 -8 -59 -17z m1066 -1030 c-4 -58 -7 -141 -7 -185 l0
-78 -203 0 -202 0 -53 178 c-28 98 -52 181 -52 185 0 4 118 7 262 7 l261 0 -6
-107z m593 -45 c0 -84 -4 -158 -8 -164 -4 -7 -66 -16 -152 -23 -80 -6 -173
-14 -207 -17 l-63 -6 0 143 c0 79 3 161 6 182 l7 37 208 0 209 0 0 -152z m650
135 c0 -10 -12 -79 -26 -154 l-27 -136 -75 -7 c-41 -3 -140 -6 -219 -6 l-143
0 0 63 c0 34 3 106 7 160 l6 97 239 0 c220 0 238 -1 238 -17z m-90 -474 c0
-15 -53 -293 -56 -298 -3 -4 -288 -40 -321 -41 -23 0 -23 0 -23 170 l0 169
153 4 c83 1 173 4 200 5 29 1 47 -2 47 -9z m-561 -271 c1 -83 0 -88 -21 -92
-37 -8 -352 -46 -381 -46 l-27 0 0 185 c0 140 3 187 13 189 6 2 100 10 207 17
l195 14 6 -90 c4 -49 7 -129 8 -177z m-597 40 c2 -101 2 -188 0 -194 -2 -9
-169 -34 -224 -34 -11 0 -19 14 -27 48 -8 37 -62 222 -97 334 -6 19 24 22 238
26 l107 2 3 -182z"/>
<path d="M15910 4535 c0 -212 -2 -385 -5 -385 -3 0 -47 7 -97 16 -188 33 -422
1 -568 -77 -236 -126 -381 -386 -410 -733 -37 -465 136 -817 486 -987 163 -79
366 -109 603 -90 151 12 439 58 556 89 l70 18 3 1217 c1 669 0 1217 -2 1217
-2 0 -141 23 -309 50 -168 28 -310 50 -316 50 -8 0 -11 -113 -11 -385z m-40
-936 l40 -12 0 -374 0 -375 -112 4 c-97 3 -120 7 -162 28 -91 47 -136 130
-157 287 -22 174 24 358 103 415 66 47 185 58 288 27z"/>
<path d="M9030 4897 c-96 -22 -171 -83 -211 -172 -17 -38 -23 -69 -23 -130 1
-131 51 -216 166 -277 37 -20 58 -23 143 -23 85 0 106 3 143 23 133 71 194
202 162 352 -35 166 -203 266 -380 227z"/>
<path d="M9860 4848 c0 -7 -9 -74 -20 -148 -56 -392 -120 -1180 -165 -2025 -8
-159 -17 -316 -19 -347 l-4 -58 354 0 354 0 0 118 c0 189 46 1221 55 1230 1 1
28 -62 59 -140 31 -79 130 -312 219 -518 l163 -375 247 0 248 0 185 430 c102
237 202 471 222 520 l37 90 6 -65 c18 -180 49 -924 49 -1197 l0 -93 350 0 350
0 0 48 c0 96 -40 792 -70 1217 -33 454 -99 1140 -126 1293 l-6 32 -312 0 -311
0 -19 -33 c-87 -151 -300 -605 -486 -1037 -51 -118 -95 -218 -99 -222 -4 -5
-47 83 -95 195 -148 339 -353 784 -434 942 l-77 150 -327 3 c-259 2 -328 0
-328 -10z"/>
<path d="M5063 3568 c4 -568 6 -620 25 -709 66 -314 223 -484 512 -558 111
-29 365 -39 547 -22 128 12 361 55 483 88 l65 18 3 898 2 897 -320 0 -320 0 0
-665 0 -665 -102 0 c-88 0 -109 4 -142 23 -51 28 -82 89 -96 182 -5 39 -10
303 -10 598 l0 527 -326 0 -326 0 5 -612z"/>
<path d="M7440 4169 c-114 -13 -335 -56 -430 -82 l-85 -23 -3 -897 -2 -897
325 0 325 0 0 664 0 664 50 7 c62 9 166 -2 202 -21 35 -18 55 -49 75 -116 14
-45 17 -139 20 -625 l4 -573 320 0 319 0 0 588 c0 468 -3 607 -15 685 -51 342
-209 527 -515 607 -73 19 -116 23 -300 25 -118 2 -249 -1 -290 -6z"/>
<path d="M8780 3225 l0 -955 325 0 325 0 0 955 0 955 -325 0 -325 0 0 -955z"/>
<path d="M13507 4164 c-293 -53 -527 -233 -648 -499 -113 -249 -110 -641 7
-893 94 -205 276 -371 487 -443 110 -38 198 -51 343 -51 186 0 308 28 456 104
204 105 350 293 414 535 51 192 43 506 -17 681 -127 370 -451 585 -872 581
-51 0 -127 -7 -170 -15z m303 -565 c88 -40 141 -110 171 -226 35 -139 19 -293
-42 -400 -54 -94 -130 -135 -250 -136 -198 0 -309 141 -309 391 0 176 66 308
182 366 68 34 179 36 248 5z"/>
<path d="M17490 4173 c-218 -37 -422 -165 -554 -350 -191 -267 -227 -743 -82
-1058 188 -406 629 -572 1207 -455 103 21 250 62 303 84 l33 14 -44 268 c-24
147 -45 270 -48 272 -2 2 -32 -7 -67 -21 -216 -86 -519 -112 -662 -57 -55 21
-136 87 -136 110 0 7 178 10 514 10 l514 0 8 68 c11 97 8 314 -6 407 -59 397
-289 646 -652 705 -61 9 -277 12 -328 3z m255 -563 c42 -20 78 -60 95 -105
l10 -25 -205 0 c-229 0 -226 -1 -176 67 57 79 183 108 276 63z"/>
</g>
</svg>
